<mxfile host="app.diagrams.net" modified="2020-11-06T02:41:34.362Z" agent="5.0 (Windows NT 10.0; Win64; x64) AppleWebKit/537.36 (KHTML, like Gecko) Chrome/84.0.4147.89 Safari/537.36" etag="9PMzd1FkIXJD1Fk0TH-y" version="13.8.6" type="github">
  <diagram id="uGIMeMpw-9VLsF-z0U4R" name="第 1 页">
    <mxGraphModel dx="1038" dy="548" grid="1" gridSize="10" guides="1" tooltips="1" connect="1" arrows="1" fold="1" page="1" pageScale="1" pageWidth="850" pageHeight="1100" math="0" shadow="0">
      <root>
        <mxCell id="0" />
        <mxCell id="1" parent="0" />
        <mxCell id="rZYdidd9kY2T4Dan_anY-28" value="" style="rounded=0;whiteSpace=wrap;html=1;dashed=1;" vertex="1" parent="1">
          <mxGeometry x="140" y="40" width="540" height="170" as="geometry" />
        </mxCell>
        <mxCell id="rZYdidd9kY2T4Dan_anY-5" style="edgeStyle=orthogonalEdgeStyle;rounded=0;orthogonalLoop=1;jettySize=auto;html=1;" edge="1" parent="1" source="rZYdidd9kY2T4Dan_anY-1" target="rZYdidd9kY2T4Dan_anY-4">
          <mxGeometry relative="1" as="geometry" />
        </mxCell>
        <mxCell id="rZYdidd9kY2T4Dan_anY-6" value="3、NODE_UPDATE" style="edgeLabel;html=1;align=center;verticalAlign=middle;resizable=0;points=[];" vertex="1" connectable="0" parent="rZYdidd9kY2T4Dan_anY-5">
          <mxGeometry x="-0.1897" y="2" relative="1" as="geometry">
            <mxPoint x="11" y="2" as="offset" />
          </mxGeometry>
        </mxCell>
        <mxCell id="rZYdidd9kY2T4Dan_anY-11" style="edgeStyle=orthogonalEdgeStyle;rounded=0;orthogonalLoop=1;jettySize=auto;html=1;exitX=0.75;exitY=1;exitDx=0;exitDy=0;entryX=0.75;entryY=0;entryDx=0;entryDy=0;" edge="1" parent="1" source="rZYdidd9kY2T4Dan_anY-1" target="rZYdidd9kY2T4Dan_anY-2">
          <mxGeometry relative="1" as="geometry" />
        </mxCell>
        <mxCell id="rZYdidd9kY2T4Dan_anY-12" value="2、response" style="edgeLabel;html=1;align=center;verticalAlign=middle;resizable=0;points=[];" vertex="1" connectable="0" parent="rZYdidd9kY2T4Dan_anY-11">
          <mxGeometry x="0.275" y="-1" relative="1" as="geometry">
            <mxPoint as="offset" />
          </mxGeometry>
        </mxCell>
        <mxCell id="rZYdidd9kY2T4Dan_anY-1" value="ResourceManager" style="rounded=0;whiteSpace=wrap;html=1;" vertex="1" parent="1">
          <mxGeometry x="170" y="60" width="120" height="60" as="geometry" />
        </mxCell>
        <mxCell id="rZYdidd9kY2T4Dan_anY-9" style="edgeStyle=orthogonalEdgeStyle;rounded=0;orthogonalLoop=1;jettySize=auto;html=1;exitX=0.25;exitY=0;exitDx=0;exitDy=0;entryX=0.25;entryY=1;entryDx=0;entryDy=0;" edge="1" parent="1" source="rZYdidd9kY2T4Dan_anY-2" target="rZYdidd9kY2T4Dan_anY-1">
          <mxGeometry relative="1" as="geometry" />
        </mxCell>
        <mxCell id="rZYdidd9kY2T4Dan_anY-10" value="1、nodeHeartbeat" style="edgeLabel;html=1;align=center;verticalAlign=middle;resizable=0;points=[];" vertex="1" connectable="0" parent="rZYdidd9kY2T4Dan_anY-9">
          <mxGeometry x="-0.1625" y="2" relative="1" as="geometry">
            <mxPoint y="-43" as="offset" />
          </mxGeometry>
        </mxCell>
        <mxCell id="rZYdidd9kY2T4Dan_anY-2" value="NodeManager" style="rounded=0;whiteSpace=wrap;html=1;" vertex="1" parent="1">
          <mxGeometry x="170" y="280" width="120" height="60" as="geometry" />
        </mxCell>
        <mxCell id="rZYdidd9kY2T4Dan_anY-15" style="edgeStyle=orthogonalEdgeStyle;rounded=0;orthogonalLoop=1;jettySize=auto;html=1;entryX=0;entryY=0.5;entryDx=0;entryDy=0;" edge="1" parent="1" source="rZYdidd9kY2T4Dan_anY-3" target="rZYdidd9kY2T4Dan_anY-7">
          <mxGeometry relative="1" as="geometry">
            <Array as="points">
              <mxPoint x="465" y="310" />
              <mxPoint x="465" y="175" />
            </Array>
          </mxGeometry>
        </mxCell>
        <mxCell id="rZYdidd9kY2T4Dan_anY-17" value="5" style="edgeLabel;html=1;align=center;verticalAlign=middle;resizable=0;points=[];" vertex="1" connectable="0" parent="rZYdidd9kY2T4Dan_anY-15">
          <mxGeometry x="0.0462" y="1" relative="1" as="geometry">
            <mxPoint as="offset" />
          </mxGeometry>
        </mxCell>
        <mxCell id="rZYdidd9kY2T4Dan_anY-24" style="edgeStyle=orthogonalEdgeStyle;rounded=0;orthogonalLoop=1;jettySize=auto;html=1;exitX=1;exitY=0.75;exitDx=0;exitDy=0;" edge="1" parent="1" source="rZYdidd9kY2T4Dan_anY-3" target="rZYdidd9kY2T4Dan_anY-21">
          <mxGeometry relative="1" as="geometry" />
        </mxCell>
        <mxCell id="rZYdidd9kY2T4Dan_anY-27" value="7" style="edgeLabel;html=1;align=center;verticalAlign=middle;resizable=0;points=[];" vertex="1" connectable="0" parent="rZYdidd9kY2T4Dan_anY-24">
          <mxGeometry x="0.0448" y="1" relative="1" as="geometry">
            <mxPoint as="offset" />
          </mxGeometry>
        </mxCell>
        <mxCell id="rZYdidd9kY2T4Dan_anY-25" style="edgeStyle=orthogonalEdgeStyle;rounded=0;orthogonalLoop=1;jettySize=auto;html=1;exitX=0;exitY=0.75;exitDx=0;exitDy=0;entryX=0.5;entryY=0;entryDx=0;entryDy=0;" edge="1" parent="1" source="rZYdidd9kY2T4Dan_anY-3" target="rZYdidd9kY2T4Dan_anY-20">
          <mxGeometry relative="1" as="geometry" />
        </mxCell>
        <mxCell id="rZYdidd9kY2T4Dan_anY-26" value="7" style="edgeLabel;html=1;align=center;verticalAlign=middle;resizable=0;points=[];" vertex="1" connectable="0" parent="rZYdidd9kY2T4Dan_anY-25">
          <mxGeometry y="-1" relative="1" as="geometry">
            <mxPoint as="offset" />
          </mxGeometry>
        </mxCell>
        <mxCell id="rZYdidd9kY2T4Dan_anY-3" value="ApplicationMaster" style="rounded=0;whiteSpace=wrap;html=1;" vertex="1" parent="1">
          <mxGeometry x="485" y="280" width="120" height="60" as="geometry" />
        </mxCell>
        <mxCell id="rZYdidd9kY2T4Dan_anY-13" style="edgeStyle=orthogonalEdgeStyle;rounded=0;orthogonalLoop=1;jettySize=auto;html=1;entryX=0.5;entryY=0;entryDx=0;entryDy=0;" edge="1" parent="1" source="rZYdidd9kY2T4Dan_anY-4" target="rZYdidd9kY2T4Dan_anY-7">
          <mxGeometry relative="1" as="geometry" />
        </mxCell>
        <mxCell id="rZYdidd9kY2T4Dan_anY-18" value="4" style="edgeLabel;html=1;align=center;verticalAlign=middle;resizable=0;points=[];" vertex="1" connectable="0" parent="rZYdidd9kY2T4Dan_anY-13">
          <mxGeometry x="0.2" y="-5" relative="1" as="geometry">
            <mxPoint x="5" as="offset" />
          </mxGeometry>
        </mxCell>
        <mxCell id="rZYdidd9kY2T4Dan_anY-4" value="ResourceScheduler" style="rounded=0;whiteSpace=wrap;html=1;" vertex="1" parent="1">
          <mxGeometry x="485" y="60" width="120" height="60" as="geometry" />
        </mxCell>
        <mxCell id="rZYdidd9kY2T4Dan_anY-16" style="edgeStyle=orthogonalEdgeStyle;rounded=0;orthogonalLoop=1;jettySize=auto;html=1;entryX=1;entryY=0.5;entryDx=0;entryDy=0;" edge="1" parent="1" source="rZYdidd9kY2T4Dan_anY-7" target="rZYdidd9kY2T4Dan_anY-3">
          <mxGeometry relative="1" as="geometry">
            <Array as="points">
              <mxPoint x="625" y="175" />
              <mxPoint x="625" y="310" />
            </Array>
          </mxGeometry>
        </mxCell>
        <mxCell id="rZYdidd9kY2T4Dan_anY-19" value="6" style="edgeLabel;html=1;align=center;verticalAlign=middle;resizable=0;points=[];" vertex="1" connectable="0" parent="rZYdidd9kY2T4Dan_anY-16">
          <mxGeometry x="0.0503" relative="1" as="geometry">
            <mxPoint as="offset" />
          </mxGeometry>
        </mxCell>
        <mxCell id="rZYdidd9kY2T4Dan_anY-7" value="assigned &lt;br&gt;containers" style="ellipse;whiteSpace=wrap;html=1;" vertex="1" parent="1">
          <mxGeometry x="505" y="150" width="80" height="50" as="geometry" />
        </mxCell>
        <mxCell id="rZYdidd9kY2T4Dan_anY-20" value="task" style="ellipse;whiteSpace=wrap;html=1;" vertex="1" parent="1">
          <mxGeometry x="425" y="400" width="60" height="30" as="geometry" />
        </mxCell>
        <mxCell id="rZYdidd9kY2T4Dan_anY-21" value="task" style="ellipse;whiteSpace=wrap;html=1;" vertex="1" parent="1">
          <mxGeometry x="605" y="400" width="60" height="30" as="geometry" />
        </mxCell>
      </root>
    </mxGraphModel>
  </diagram>
</mxfile>
